<?xml version="1.0" encoding="UTF-8"?><svg id="c" xmlns="http://www.w3.org/2000/svg" width="49mm" height="61.8898mm" viewBox="0 0 138.8976 175.4357"><defs><style>.d{fill:#fff;}</style></defs><path class="d" d="M112.1926,147.3528c16.9087-20.3791-14.4346-12.4032-30.2642-10.3536-39.6635,5.1356-45.9517-25.2734-45.9517-25.2734,9.2017,4.2119,23.2311,10.9773,48.0561,10.3603,28.4982-.7083,37.6893,9.0175,37.6893,9.0175-9.2161-14.226-31.1604-10.3376-68.7728-19.9528s-31.6736-42.8889-31.6736-42.8889c10.3611,11.2977,33.9573,20.5332,47.9307,23.5363,48.1956,10.3578,54.78,30.0224,54.78,30.0224-3.8364-12.9003-14.8284-27.6972-68.4982-43.0092C-7.38,60.8751,8.6515,1.8389,8.6515,1.8389c0,0,6.5725,21.9583,77.5268,68.0723,45.4308,29.526,40.474,51.3994,39.1307,60.6782l-13.1163,16.7634Z"/><path class="d" d="M77.3589,40.8277c27.4779,5.2992,48.2338,29.4723,48.2338,58.4973,0,32.9058-26.6754,59.5813-59.5813,59.5813S6.4302,132.2308,6.4302,99.325c0-6.5754,1.0679-12.9007,3.0351-18.8154-3.6332,8.2497-5.6545,17.3693-5.6545,26.9622,0,36.9845,29.9819,66.9663,66.9663,66.9663s66.9663-29.9819,66.9663-66.9663c0-34.7634-26.4896-63.3372-60.3845-66.6441Z"/></svg>