<?xml version="1.0" encoding="UTF-8"?><svg id="c" xmlns="http://www.w3.org/2000/svg" width="332.8183mm" height="446.7972mm" viewBox="0 0 943.4221 1266.5118"><defs><style>.d{fill:#fff;}</style></defs><path class="d" d="M747.3192,1011.3389c116.6243-140.5603-99.5596-85.5483-208.741-71.4115-273.5708,35.4219-316.942-174.3181-316.942-174.3181,63.4668,29.0509,160.2318,75.7139,331.4567,71.458,196.5607-4.8857,259.9544,62.1965,259.9544,62.1965-63.5665-98.1211-214.9224-71.3016-474.346-137.6203C79.2777,695.3249,120.2393,465.8264,120.2393,465.8264c71.4635,77.9235,234.2131,141.6235,330.5923,162.3366,332.4189,71.4409,377.8337,207.0732,377.8337,207.0732-26.461-88.977-102.2759-191.0355-472.452-296.6469C-77.4084,414.8768,33.1654,7.6868,33.1654,7.6868c0,0,45.3323,151.4527,534.7248,469.5145,313.3497,203.6496,279.161,354.5168,269.8958,418.5154l-90.4668,115.6223Z"/><path class="d" d="M516.4898,336.6535c189.5229,36.55,332.6827,203.2791,332.6827,403.4729,0,226.9611-183.9883,410.9493-410.9494,410.9493S27.2738,967.0875,27.2738,740.1264c0-45.3522,7.3656-88.9799,20.9336-129.7753-25.0591,56.9009-39.0007,119.8011-39.0007,185.9665,0,255.0928,206.7936,461.8863,461.8863,461.8863s461.8863-206.7936,461.8863-461.8863c0-239.773-182.7067-436.8549-416.4896-459.6641Z"/></svg>